<mxfile host="app.diagrams.net" agent="Mozilla/5.0 (Windows NT 10.0; Win64; x64) AppleWebKit/537.36 (KHTML, like Gecko) Chrome/129.0.0.0 Safari/537.36" version="24.7.17">
  <diagram name="Page-1" id="M2mS_Xz5BeYHJvoCJpoD">
    <mxGraphModel dx="398" dy="291" grid="0" gridSize="10" guides="1" tooltips="1" connect="1" arrows="1" fold="1" page="0" pageScale="1" pageWidth="850" pageHeight="1100" math="0" shadow="0">
      <root>
        <mxCell id="0" />
        <mxCell id="1" parent="0" />
        <mxCell id="eUehZlpftQXPXXAXQbFS-9" value="" style="edgeStyle=none;curved=1;rounded=0;orthogonalLoop=1;jettySize=auto;html=1;fontSize=12;startSize=8;endSize=8;" edge="1" parent="1" source="eUehZlpftQXPXXAXQbFS-1" target="eUehZlpftQXPXXAXQbFS-3">
          <mxGeometry relative="1" as="geometry" />
        </mxCell>
        <mxCell id="eUehZlpftQXPXXAXQbFS-1" value="Client&amp;nbsp;" style="rounded=1;whiteSpace=wrap;html=1;fillColor=#a0522d;strokeColor=#6D1F00;fontColor=#ffffff;" vertex="1" parent="1">
          <mxGeometry x="145" y="115" width="134" height="49" as="geometry" />
        </mxCell>
        <mxCell id="eUehZlpftQXPXXAXQbFS-15" value="" style="edgeStyle=none;curved=1;rounded=0;orthogonalLoop=1;jettySize=auto;html=1;fontSize=12;startSize=8;endSize=8;" edge="1" parent="1" source="eUehZlpftQXPXXAXQbFS-3" target="eUehZlpftQXPXXAXQbFS-5">
          <mxGeometry relative="1" as="geometry" />
        </mxCell>
        <mxCell id="eUehZlpftQXPXXAXQbFS-3" value="Express server" style="rounded=1;whiteSpace=wrap;html=1;fillColor=#6d8764;strokeColor=#3A5431;fontColor=#ffffff;" vertex="1" parent="1">
          <mxGeometry x="354" y="115" width="134" height="49" as="geometry" />
        </mxCell>
        <mxCell id="eUehZlpftQXPXXAXQbFS-10" value="" style="edgeStyle=none;curved=1;rounded=0;orthogonalLoop=1;jettySize=auto;html=1;fontSize=12;startSize=8;endSize=8;" edge="1" parent="1" source="eUehZlpftQXPXXAXQbFS-4" target="eUehZlpftQXPXXAXQbFS-5">
          <mxGeometry relative="1" as="geometry" />
        </mxCell>
        <mxCell id="eUehZlpftQXPXXAXQbFS-4" value="Router" style="rounded=1;whiteSpace=wrap;html=1;fillColor=#76608a;strokeColor=#432D57;fontColor=#ffffff;" vertex="1" parent="1">
          <mxGeometry x="143" y="249" width="134" height="49" as="geometry" />
        </mxCell>
        <mxCell id="eUehZlpftQXPXXAXQbFS-11" value="" style="edgeStyle=none;curved=1;rounded=0;orthogonalLoop=1;jettySize=auto;html=1;fontSize=12;startSize=8;endSize=8;" edge="1" parent="1" source="eUehZlpftQXPXXAXQbFS-5" target="eUehZlpftQXPXXAXQbFS-6">
          <mxGeometry relative="1" as="geometry" />
        </mxCell>
        <mxCell id="eUehZlpftQXPXXAXQbFS-5" value="Controllers" style="rounded=1;whiteSpace=wrap;html=1;fillColor=#a0522d;strokeColor=#6D1F00;fontColor=#ffffff;" vertex="1" parent="1">
          <mxGeometry x="354" y="251" width="134" height="49" as="geometry" />
        </mxCell>
        <mxCell id="eUehZlpftQXPXXAXQbFS-12" value="" style="edgeStyle=none;curved=1;rounded=0;orthogonalLoop=1;jettySize=auto;html=1;fontSize=12;startSize=8;endSize=8;" edge="1" parent="1" source="eUehZlpftQXPXXAXQbFS-6" target="eUehZlpftQXPXXAXQbFS-8">
          <mxGeometry relative="1" as="geometry" />
        </mxCell>
        <mxCell id="eUehZlpftQXPXXAXQbFS-6" value="Data Access Objects" style="rounded=1;whiteSpace=wrap;html=1;fillColor=#994C00;strokeColor=#6F0000;fontColor=#ffffff;" vertex="1" parent="1">
          <mxGeometry x="608" y="251" width="134" height="49" as="geometry" />
        </mxCell>
        <mxCell id="eUehZlpftQXPXXAXQbFS-8" value="MySQL Database" style="rounded=1;whiteSpace=wrap;html=1;fillColor=#647687;strokeColor=#314354;fontColor=#ffffff;" vertex="1" parent="1">
          <mxGeometry x="608" y="358" width="134" height="49" as="geometry" />
        </mxCell>
        <mxCell id="eUehZlpftQXPXXAXQbFS-13" value="" style="endArrow=classic;html=1;rounded=0;fontSize=12;startSize=8;endSize=8;curved=1;exitX=0;exitY=0.25;exitDx=0;exitDy=0;entryX=1;entryY=0.25;entryDx=0;entryDy=0;" edge="1" parent="1" source="eUehZlpftQXPXXAXQbFS-6" target="eUehZlpftQXPXXAXQbFS-5">
          <mxGeometry width="50" height="50" relative="1" as="geometry">
            <mxPoint x="508" y="317" as="sourcePoint" />
            <mxPoint x="558" y="267" as="targetPoint" />
          </mxGeometry>
        </mxCell>
        <mxCell id="eUehZlpftQXPXXAXQbFS-14" value="" style="endArrow=classic;html=1;rounded=0;fontSize=12;startSize=8;endSize=8;curved=1;exitX=0;exitY=0.25;exitDx=0;exitDy=0;entryX=1;entryY=0.25;entryDx=0;entryDy=0;" edge="1" parent="1" source="eUehZlpftQXPXXAXQbFS-3">
          <mxGeometry width="50" height="50" relative="1" as="geometry">
            <mxPoint x="397" y="128" as="sourcePoint" />
            <mxPoint x="277" y="128" as="targetPoint" />
          </mxGeometry>
        </mxCell>
      </root>
    </mxGraphModel>
  </diagram>
</mxfile>
